# xmcd
#
# Track frame offsets:
#	150
#	11592
#	21207
#	33280
#	46561
#	59385
#	68860
#	80456
#	92259
#	104705
#	117635
#	132935
#	141522
#	153404
#	167486
#	181217
#	201738
#	220572
#	231385
#	243360
#
# Disc length: 3410 seconds
#
# Revision: 0
# Processed by: cddbd v1.5.1PL2 Copyright (c) Steve Scherf et al.
# Submitted via: dBpowerAMP V4.0
#
DISCID=150d5014
DTITLE=Various Artist - Nashville's Got The Beat!
DYEAR=2005
DGENRE=Soul
TTITLE0=Tiny Watkins - Give Me My Flowers
TTITLE1=Tiny Watkins - Love Flows Like A River
TTITLE2=Tiny Watkins - Spell Bound
TTITLE3=Rodge Martin - Lovin' Machine
TTITLE4=Rodge Martin - When She Touches Me
TTITLE5=Rodge Martin - Close My Eyes
TTITLE6=Earl Gaines  - Trust In Me
TTITLE7=Earl Gaines  - It's Worth Anything
TTITLE8=Earl Gaines  - The Best Of Luck To You
TTITLE9=Sam Baker - Do Right Man
TTITLE10=Sam Baker - Blues Are Killing Me
TTITLE11=Lucille Mathis - I'm Not Your Regular Woman
TTITLE12=Lucille Mathis - I Don't Want To Go Through Life
TTITLE13=Eddie James - All I Have To Offer You Is Me
TTITLE14=Dee Brown - Bad Habit
TTITLE15=Dee Brown - Heap Of People
TTITLE16=Dee Brown - Love Love Love
TTITLE17=Art Grayson - Be Ever Mine
TTITLE18=Art Grayson - My Headache
TTITLE19=Art Grayson - When I Get Home
EXTD=
EXTT0=
EXTT1=
EXTT2=
EXTT3=
EXTT4=
EXTT5=
EXTT6=
EXTT7=
EXTT8=
EXTT9=
EXTT10=
EXTT11=
EXTT12=
EXTT13=
EXTT14=
EXTT15=
EXTT16=
EXTT17=
EXTT18=
EXTT19=
PLAYORDER=
